<svg id="OBJECTS" xmlns="http://www.w3.org/2000/svg" xmlns:xlink="http://www.w3.org/1999/xlink" viewBox="0 0 500 500"><defs><style>.cls-1{fill:#e3ffff;}.cls-2{fill:#e8a127;}.cls-3{fill:#c67e1f;}.cls-4{fill:#efc56c;}.cls-5{fill:#4e4e4e;}.cls-6{fill:#151515;}.cls-17,.cls-7{fill:#fff;}.cls-8{fill:#cf3311;}.cls-9{fill:#ece1de;}.cls-10{fill:#b72f10;}.cls-11{fill:#e4c3ba;}.cls-12{fill:#f2d874;}.cls-13{fill:#569868;}.cls-14{fill:#b0b0b0;}.cls-15{fill:#455a64;}.cls-16{fill:url(#linear-gradient);}.cls-17{fill-rule:evenodd;}</style><linearGradient id="linear-gradient" x1="264.55" y1="320.91" x2="264.55" y2="218.03" gradientUnits="userSpaceOnUse"><stop offset="0" stop-color="#20b038"/><stop offset="1" stop-color="#60d66a"/></linearGradient></defs><title>Mesa de trabajo 1</title><path class="cls-1" d="M68.4,462.49A235.68,235.68,0,0,1,17.27,315.55c0-130.72,106-236.7,236.71-236.7s236.72,106,236.72,236.7a235.68,235.68,0,0,1-51.13,146.94Z"/><rect class="cls-2" x="75.11" y="408.8" width="41.91" height="53.81"/><polygon class="cls-3" points="75.11 462.61 75.11 408.8 50.5 408.8 50.88 462.61 75.11 462.61"/><rect class="cls-4" x="95.1" y="408.8" width="6.26" height="12.25"/><polygon class="cls-3" points="136.36 462.61 136.36 408.8 117.01 408.8 117.32 462.61 136.36 462.61"/><rect class="cls-3" x="114.72" y="366.83" width="31.05" height="41.97"/><polygon class="cls-2" points="142.14 408.8 142.14 366.83 166.6 366.83 166.28 408.8 142.14 408.8"/><rect class="cls-4" x="126.93" y="366.83" width="4.89" height="9.55"/><rect class="cls-2" x="63.03" y="366.83" width="31.05" height="41.97"/><polygon class="cls-2" points="94.08 408.8 94.08 366.83 114.92 366.83 114.59 408.8 94.08 408.8"/><rect class="cls-3" x="63.03" y="366.83" width="18.63" height="41.97"/><rect class="cls-2" x="135.34" y="408.8" width="43.41" height="53.81"/><rect class="cls-4" x="153.91" y="408.8" width="6.26" height="12.25"/><rect class="cls-4" x="96.06" y="366.83" width="4.89" height="9.55" transform="translate(197 743.21) rotate(-180)"/><rect class="cls-3" x="91.65" y="325.55" width="31.05" height="41.97"/><polygon class="cls-2" points="119.08 367.52 119.08 325.55 143.54 325.55 143.22 367.52 119.08 367.52"/><rect class="cls-4" x="103.86" y="325.55" width="4.89" height="9.55" transform="translate(212.61 660.65) rotate(-180)"/><circle class="cls-1" cx="83.3" cy="78.85" r="20.46" transform="translate(-0.25 0.26) rotate(-0.18)"/><path class="cls-5" d="M162.74,67c3.13-18.55,31.71-26.93,31.15-14.82l131,.77c9.07.05,16.43,8.21,16.44,18.24l.27,344.55c0,10.38-7.48,18.87-16.73,18.95l-133.75,1.15a10.68,10.68,0,0,1-4.83,4.65c-15.34.33-22.69-7.24-25.38-15.81a20.49,20.49,0,0,1-1.33-7.51C160.14,412.67,161.77,71.35,162.74,67Z"/><path class="cls-5" d="M187.74,440.54l153.53-1c9.58-.06,17.33-8.78,17.31-19.47L358,65.74c0-10.3-7.64-18.67-17-18.7l-150.55-.49c-9.47,0-17.21,8.33-17.29,18.68l-2.73,356C170.32,431.94,178.08,440.6,187.74,440.54Z"/><path class="cls-6" d="M185.62,438a12.56,12.56,0,0,0,1.94.12L341,436.92c8.23-.06,15-7.71,14.95-17l-.53-353.94c0-9-6.64-16.34-14.71-16.37l-150.54-.66-.7,0a14.25,14.25,0,0,0-10,4.85,17,17,0,0,0-4.24,11.27L172.6,421.38C172.54,429.83,178.11,437,185.62,438Z"/><polygon class="cls-7" points="180.57 66.84 178.41 421.93 350.88 420.9 350.44 66.84 180.57 66.84"/><polygon class="cls-8" points="298.31 141.14 279.25 140.99 218.01 65.58 237.15 65.74 298.31 141.14"/><polygon class="cls-9" points="279.25 140.99 260.21 140.83 198.87 65.43 218.01 65.58 279.25 140.99"/><polygon class="cls-8" points="260.21 140.83 241.16 140.68 179.75 65.27 198.87 65.43 260.21 140.83"/><polygon class="cls-9" points="317.35 141.3 298.31 141.14 237.15 65.74 256.28 65.9 317.35 141.3"/><polygon class="cls-9" points="355.44 141.61 336.4 141.45 275.42 66.06 294.54 66.21 355.44 141.61"/><polygon class="cls-8" points="410.72 142.06 393.54 141.92 332.81 66.53 350.05 66.67 410.72 142.06"/><polygon class="cls-9" points="393.54 141.92 374.5 141.76 313.68 66.37 332.81 66.53 393.54 141.92"/><polygon class="cls-8" points="336.4 141.45 317.35 141.3 256.28 65.9 275.42 66.06 336.4 141.45"/><polygon class="cls-8" points="374.5 141.76 355.44 141.61 294.54 66.21 313.68 66.37 374.5 141.76"/><path class="cls-10" d="M260.21,140.83v11.48c0,12.16-19,12-19-.16l0-11.48Z"/><path class="cls-11" d="M279.25,141v11.47c0,12.17-19,12-19-.15V140.83Z"/><path class="cls-10" d="M298.31,141.14l0,11.48c0,12.16-19.05,12-19-.16V141Z"/><path class="cls-11" d="M317.35,141.3l0,11.47c0,12.17-19.05,12-19-.15l0-11.48Z"/><path class="cls-10" d="M336.4,141.45l0,11.48c-.05,12.16-19.08,12-19-.16l0-11.47Z"/><path class="cls-11" d="M355.44,141.61l-.05,11.48c-.06,12.16-19.08,12-19-.16l0-11.48Z"/><path class="cls-10" d="M374.5,141.76l-.07,11.48c-.08,12.16-19.1,12-19-.15l.05-11.48Z"/><path class="cls-11" d="M393.54,141.92l-.09,11.48c-.08,12.16-19.1,12-19-.16l.07-11.48Z"/><path class="cls-10" d="M410.72,142.06l-.1,11.48a8.6,8.6,0,1,1-17.17-.14l.09-11.48Z"/><polygon class="cls-9" points="241.16 140.68 242.65 140.88 179.66 140.32 179.75 65.27 241.16 140.68"/><rect class="cls-6" x="147.96" y="435.6" width="178.23" height="13.95" transform="translate(474.16 885.15) rotate(-180)"/><rect class="cls-5" x="200.58" y="435.6" width="203.43" height="13.95" transform="translate(604.59 885.15) rotate(-180)"/><rect class="cls-5" x="211.56" y="449.55" width="233.36" height="13.95" transform="translate(656.48 913.05) rotate(-180)"/><rect class="cls-6" x="147.96" y="449.55" width="81.82" height="13.95" transform="translate(377.75 913.05) rotate(-180)"/><polygon class="cls-12" points="140.47 261.89 138.6 267.79 132.56 267.79 137.45 271.44 135.58 277.34 140.47 273.69 145.37 277.34 143.5 271.44 148.4 267.79 142.34 267.79 140.47 261.89"/><polygon class="cls-12" points="118.78 261.89 116.91 267.79 110.86 267.79 115.75 271.44 113.88 277.34 118.78 273.69 123.67 277.34 121.8 271.44 126.7 267.79 120.64 267.79 118.78 261.89"/><polygon class="cls-12" points="97.08 261.89 95.21 267.79 89.16 267.79 94.05 271.44 92.18 277.34 97.08 273.69 101.97 277.34 100.1 271.44 105 267.79 98.95 267.79 97.08 261.89"/><polygon class="cls-12" points="75.38 261.89 73.51 267.79 67.46 267.79 72.35 271.44 70.48 277.34 75.38 273.69 80.27 277.34 78.4 271.44 83.3 267.79 77.25 267.79 75.38 261.89"/><ellipse class="cls-13" cx="107.54" cy="205.75" rx="12.83" ry="12.85"/><path class="cls-7" d="M99,199c3.22,1,7.25,4.64,9.52,8.63a6.06,6.06,0,0,1,3.68-3.07l2.39,3.22a7.42,7.42,0,0,0-4.78,4.67h-2.9c-.83-2.5-3-8.49-8.69-12.4A4.47,4.47,0,0,1,99,199Z"/><path class="cls-6" d="M95.72,241.5l-4.37-13.71a1,1,0,0,1,1-1.37h31.53a1.05,1.05,0,0,1,.85.43,1.08,1.08,0,0,1,.15.94L120.5,241.5a1.05,1.05,0,0,1-1,.73H96.71A1,1,0,0,1,95.72,241.5Zm26.72-13H93.77l3.7,11.6h21.27Z"/><path class="cls-6" d="M98.58,248H118a1,1,0,0,0,0-2.1H99.34a1.89,1.89,0,0,1-1.93-1.83,1.85,1.85,0,0,1,.76-1.87l-6.56-20.72a1.05,1.05,0,0,0-1-.73H83.83a1.06,1.06,0,0,0,0,2.11h6l6,19.22C94.27,244.76,96.45,248,98.58,248Z"/><path class="cls-6" d="M111.65,251.56a2.4,2.4,0,1,0,2.4-2.42A2.4,2.4,0,0,0,111.65,251.56Z"/><path class="cls-6" d="M99.56,251.56a2.41,2.41,0,1,0,2.4-2.42A2.41,2.41,0,0,0,99.56,251.56Z"/><path class="cls-6" d="M107.54,242.23a1,1,0,0,0,1-1V227.47a1,1,0,1,0-2.09,0v13.71A1,1,0,0,0,107.54,242.23Z"/><path class="cls-6" d="M113.36,242.23a1,1,0,0,0,1-.82l3.08-13.71a1,1,0,1,0-2-.46l-3.09,13.7a1.05,1.05,0,0,0,.79,1.26A.91.91,0,0,0,113.36,242.23Z"/><path class="cls-6" d="M102,242.23h.15A1.06,1.06,0,0,0,103,241l-2-13.71a1,1,0,0,0-1.18-.89,1.06,1.06,0,0,0-.89,1.19l2,13.71A1.05,1.05,0,0,0,102,242.23Z"/><path class="cls-6" d="M94.53,235.46h27.13a1,1,0,1,0,0-2.1H94.53a1,1,0,1,0,0,2.1Z"/><path class="cls-7" d="M376.25,237.54c7.44,0,22.11-.13,49.34-.13a7.65,7.65,0,0,0,7.66-7.65v-13a7.65,7.65,0,0,0-7.66-7.65H377.08a7.65,7.65,0,0,0-7.66,7.65v14A6.77,6.77,0,0,0,376.25,237.54Z"/><path class="cls-14" d="M419.11,223.32a2.6,2.6,0,1,0,2.6-2.6A2.59,2.59,0,0,0,419.11,223.32Z"/><path class="cls-14" d="M405.53,223.32a2.6,2.6,0,1,0,2.6-2.6A2.59,2.59,0,0,0,405.53,223.32Z"/><path class="cls-14" d="M391.94,223.32a2.61,2.61,0,1,0,2.6-2.6A2.6,2.6,0,0,0,391.94,223.32Z"/><path class="cls-14" d="M378.36,223.32a2.6,2.6,0,1,0,2.6-2.6A2.6,2.6,0,0,0,378.36,223.32Z"/><polygon class="cls-7" points="395.68 232.45 395.68 244.27 410.73 232.89 395.68 232.45"/><g id="WA_Logotype" data-name="WA Logotype"><path class="cls-15" d="M219,341.13h0l-3.33-13.42h-4L208.18,341h-.05l-3.08-13.26h-4.28l5.15,19.48h4.34l3.24-13.26h.06l3.3,13.26h4.25l5.23-19.48h-4.19Zm20.46-6.83a3.84,3.84,0,0,0-1.57-1.17,6.65,6.65,0,0,0-2.55-.43,5.15,5.15,0,0,0-2.24.56,4.54,4.54,0,0,0-1.88,1.79h-.08v-7.34h-3.87v19.48h3.87V339.8a5.19,5.19,0,0,1,.71-3.1,2.66,2.66,0,0,1,2.29-.94,2.1,2.1,0,0,1,1.93.86,4.86,4.86,0,0,1,.55,2.6v8h3.87v-8.68a11.65,11.65,0,0,0-.23-2.38A4.5,4.5,0,0,0,239.41,334.3Zm16,9.75v-7.34a3.35,3.35,0,0,0-.58-2.06,4,4,0,0,0-1.47-1.21,6.59,6.59,0,0,0-2-.59,15.76,15.76,0,0,0-2.15-.15,11.45,11.45,0,0,0-2.33.24,6.6,6.6,0,0,0-2.09.77,4.71,4.71,0,0,0-1.53,1.45,4.54,4.54,0,0,0-.68,2.26h3.87a2.19,2.19,0,0,1,.77-1.63,2.9,2.9,0,0,1,1.8-.49,7.27,7.27,0,0,1,1,.06,2.23,2.23,0,0,1,.8.28,1.49,1.49,0,0,1,.54.57,2,2,0,0,1,.2,1,1.05,1.05,0,0,1-.35.92,2.58,2.58,0,0,1-1,.48,9.43,9.43,0,0,1-1.5.24c-.56.06-1.13.13-1.71.22a14.38,14.38,0,0,0-1.73.37,4.65,4.65,0,0,0-1.53.69,3.55,3.55,0,0,0-1.09,1.24,4.15,4.15,0,0,0-.43,2,4.47,4.47,0,0,0,.37,1.88,3.52,3.52,0,0,0,1,1.31,4.28,4.28,0,0,0,1.52.77,7.07,7.07,0,0,0,1.88.24,8.93,8.93,0,0,0,2.57-.38,5.11,5.11,0,0,0,2.18-1.34c0,.24,0,.47.09.7s.11.45.18.67h3.93a3.3,3.3,0,0,1-.38-1.31A13.43,13.43,0,0,1,255.36,344.05Zm-3.88-2.32a8.59,8.59,0,0,1-.06.88,3,3,0,0,1-.37,1.07,2.56,2.56,0,0,1-.93.92,3.47,3.47,0,0,1-1.77.38,5.29,5.29,0,0,1-.9-.08,2.15,2.15,0,0,1-.76-.29,1.4,1.4,0,0,1-.52-.56,1.8,1.8,0,0,1-.19-.87,1.85,1.85,0,0,1,.19-.9,1.68,1.68,0,0,1,.5-.59,3,3,0,0,1,.74-.37,8.33,8.33,0,0,1,.86-.22c.31-.05.62-.1.92-.13s.61-.08.89-.14a5.69,5.69,0,0,0,.79-.2,1.7,1.7,0,0,0,.61-.34Zm11.1-12.87h-3.87v4.23h-2.34v2.59h2.34V344a3.63,3.63,0,0,0,.35,1.71,2.49,2.49,0,0,0,1,1,3.91,3.91,0,0,0,1.42.48,11.63,11.63,0,0,0,1.7.12l1.18,0a10.83,10.83,0,0,0,1.09-.11v-3l-.57.08q-.3,0-.63,0a1.32,1.32,0,0,1-1.64-1.64v-7h2.84v-2.59h-2.84Zm16,12.15a3.5,3.5,0,0,0-1-1.12,5.48,5.48,0,0,0-1.43-.72,15.5,15.5,0,0,0-1.65-.46l-1.61-.36a11.88,11.88,0,0,1-1.41-.37,2.82,2.82,0,0,1-1-.53,1,1,0,0,1-.38-.85,1,1,0,0,1,.22-.69,1.41,1.41,0,0,1,.53-.4,2.18,2.18,0,0,1,.69-.17,6.08,6.08,0,0,1,.71,0,3.92,3.92,0,0,1,1.8.39,1.7,1.7,0,0,1,.85,1.51h3.68a4.71,4.71,0,0,0-.67-2.16,4.29,4.29,0,0,0-1.4-1.38,6,6,0,0,0-1.93-.74,11.62,11.62,0,0,0-4.45,0,6.16,6.16,0,0,0-2,.71,3.83,3.83,0,0,0-1.4,1.37,4.22,4.22,0,0,0-.53,2.24,3,3,0,0,0,.38,1.57,3.2,3.2,0,0,0,1,1.06,5.43,5.43,0,0,0,1.43.69q.79.26,1.65.45a23.13,23.13,0,0,1,3.23.87c.77.29,1.16.73,1.16,1.31a1.41,1.41,0,0,1-.25.86,1.75,1.75,0,0,1-.61.54,2.77,2.77,0,0,1-.82.3,3.79,3.79,0,0,1-.86.1,4.42,4.42,0,0,1-1.1-.14,2.78,2.78,0,0,1-.94-.42,2.13,2.13,0,0,1-.93-1.81h-3.68a4.75,4.75,0,0,0,.64,2.35,4.64,4.64,0,0,0,1.5,1.52,6.47,6.47,0,0,0,2.09.82,11.89,11.89,0,0,0,2.39.24,11.59,11.59,0,0,0,2.36-.23,5.87,5.87,0,0,0,2.06-.8,4.3,4.3,0,0,0,2-3.85A3.33,3.33,0,0,0,278.59,341Zm7.69-13.3-7.36,19.48h4.3l1.53-4.34H292l1.47,4.34H298l-7.28-19.48Zm-.41,12,2.53-7.15h.06l2.45,7.15ZM311.34,335a6,6,0,0,0-2-1.66,6.14,6.14,0,0,0-2.87-.63,5.62,5.62,0,0,0-2.4.52,4.29,4.29,0,0,0-1.8,1.67h0v-1.8h-3.68v19h3.87v-6.69h.05a4.59,4.59,0,0,0,1.82,1.57,5.53,5.53,0,0,0,2.41.53,5.79,5.79,0,0,0,2.71-.6,5.62,5.62,0,0,0,1.94-1.61,6.93,6.93,0,0,0,1.16-2.32,9.82,9.82,0,0,0,.38-2.72,10.94,10.94,0,0,0-.38-2.88A7.36,7.36,0,0,0,311.34,335Zm-2.48,6.85a4.15,4.15,0,0,1-.56,1.43,2.93,2.93,0,0,1-2.64,1.38,3,3,0,0,1-2.63-1.38,4.37,4.37,0,0,1-.57-1.43,7.67,7.67,0,0,1-.18-1.66,8.5,8.5,0,0,1,.17-1.69A4.14,4.14,0,0,1,303,337a2.93,2.93,0,0,1,2.63-1.42,2.94,2.94,0,0,1,1.56.4,3.23,3.23,0,0,1,1.05,1,4.39,4.39,0,0,1,.59,1.46,7.77,7.77,0,0,1,.18,1.67A9.16,9.16,0,0,1,308.86,341.84Zm19.08-4.43a7,7,0,0,0-1.17-2.42,6,6,0,0,0-2-1.66,6.11,6.11,0,0,0-2.87-.63,5.54,5.54,0,0,0-2.39.52,4.23,4.23,0,0,0-1.8,1.67h-.06v-1.8H314v19h3.87v-6.69h.06a4.56,4.56,0,0,0,1.81,1.57,5.56,5.56,0,0,0,2.41.53,5.86,5.86,0,0,0,2.72-.6,5.59,5.59,0,0,0,1.93-1.61,6.75,6.75,0,0,0,1.16-2.32,9.46,9.46,0,0,0,.38-2.72A10.54,10.54,0,0,0,327.94,337.41Zm-3.65,4.43a4.15,4.15,0,0,1-.56,1.43,3,3,0,0,1-1,1,3.5,3.5,0,0,1-3.17,0,3,3,0,0,1-1-1,4.17,4.17,0,0,1-.58-1.43,7.67,7.67,0,0,1-.17-1.66,8.5,8.5,0,0,1,.16-1.69,4.34,4.34,0,0,1,.56-1.45,3.08,3.08,0,0,1,1-1,3.32,3.32,0,0,1,3.16,0,3.33,3.33,0,0,1,1.05,1,4.38,4.38,0,0,1,.58,1.46,7.77,7.77,0,0,1,.18,1.67A8.34,8.34,0,0,1,324.29,341.84Z"/></g><rect class="cls-16" x="213.11" y="218.03" width="102.88" height="102.88" rx="26.6"/><path class="cls-17" d="M299.62,268.57a34.49,34.49,0,0,1-51.08,29.92l-19.07,6.06,6.22-18.33a33.78,33.78,0,0,1-4.94-17.65,34.44,34.44,0,0,1,68.87,0Zm-34.43-28.73a28.88,28.88,0,0,0-29,28.73,28.42,28.42,0,0,0,5.52,16.85l-3.62,10.66,11.12-3.53a28.81,28.81,0,1,0,15.94-52.71Zm17.38,36.6c-.21-.35-.77-.56-1.61-1s-5-2.44-5.77-2.72-1.34-.42-1.9.42-2.18,2.72-2.68,3.28-1,.63-1.82.21A23,23,0,0,1,262,272.5a25.63,25.63,0,0,1-4.7-5.8c-.49-.84-.05-1.29.37-1.71s.84-1,1.27-1.47a5.72,5.72,0,0,0,.84-1.4,1.52,1.52,0,0,0-.07-1.46c-.21-.42-1.9-4.54-2.6-6.22s-1.41-1.61-1.9-1.61a12.91,12.91,0,0,0-1.41.14,4.75,4.75,0,0,0-2.46,1.05,9.37,9.37,0,0,0-3,7c0,4.12,3,8.11,3.44,8.66s5.84,9.3,14.42,12.65,8.58,2.24,10.13,2.09,5-2,5.7-4a7,7,0,0,0,.49-4Zm0,0"/></svg>